<?xml version="1.0" encoding="iso-8859-1"?>
<!-- Generator: Adobe Illustrator 19.0.0, SVG Export Plug-In . SVG Version: 6.00 Build 0)  -->
<svg version="1.1" id="Layer_1" xmlns="http://www.w3.org/2000/svg" xmlns:xlink="http://www.w3.org/1999/xlink" x="0px" y="0px"
	 viewBox="0 0 512.009 512.009" style="enable-background:new 0 0 512.009 512.009;" xml:space="preserve">
<circle style="fill:#F7B239;" cx="256.004" cy="256.004" r="256.004"/>
<path style="fill:#E09B2D;" d="M121.499,390.501C29.407,298.407,22.15,153.608,99.723,53.204
	c-8.593,6.638-16.861,13.895-24.743,21.777c-99.974,99.974-99.974,262.065,0,362.038s262.065,99.974,362.038,0
	c7.881-7.881,15.138-16.15,21.777-24.743C358.392,489.85,213.593,482.593,121.499,390.501z"/>
<path style="fill:#FFFFFF;" d="M377.624,213.806v44.344c-67.167,67.167-176.072,67.167-243.252,0v-44.344
	C201.552,280.986,310.457,280.986,377.624,213.806z"/>
<path style="fill:#F95428;" d="M286.95,339.841c19.736,0,36.892,11.02,45.66,27.239c-20.913,16.991-47.57,27.163-76.605,27.163
	s-55.692-10.172-76.605-27.163c8.755-16.219,25.923-27.239,45.647-27.239c11.601,0,22.317,3.808,30.958,10.248
	C264.645,343.649,275.349,339.841,286.95,339.841z"/>
<path style="fill:#A81004;" d="M377.624,258.15v14.473c0,33.59-13.613,63.992-35.627,85.993c-2.973,2.986-6.111,5.807-9.387,8.464
	c-8.768-16.219-25.923-27.239-45.66-27.239c-11.601,0-22.305,3.808-30.946,10.248c-8.641-6.44-19.357-10.248-30.958-10.248
	c-19.724,0-36.892,11.02-45.647,27.239c-27.479-22.279-45.027-56.325-45.027-94.457V258.15
	C201.552,325.317,310.457,325.317,377.624,258.15z"/>
<g>
	<path style="fill:#4D4D4D;" d="M168.58,181.703c0,5.24,4.248,9.489,9.489,9.489s9.489-4.248,9.489-9.489
		c0-33.141-26.962-60.103-60.103-60.103s-60.103,26.962-60.103,60.103c0,5.24,4.248,9.489,9.489,9.489s9.489-4.248,9.489-9.489
		c0-22.677,18.449-41.125,41.125-41.125S168.58,159.028,168.58,181.703z"/>
	<path style="fill:#4D4D4D;" d="M384.546,121.602c-33.141,0-60.103,26.962-60.103,60.103c0,5.24,4.248,9.489,9.489,9.489
		c5.24,0,9.489-4.248,9.489-9.489c0-22.677,18.449-41.125,41.125-41.125c22.677,0,41.125,18.449,41.125,41.125
		c0,5.24,4.248,9.489,9.489,9.489c5.24,0,9.489-4.248,9.489-9.489C444.648,148.564,417.686,121.602,384.546,121.602z"/>
</g>
<g>
</g>
<g>
</g>
<g>
</g>
<g>
</g>
<g>
</g>
<g>
</g>
<g>
</g>
<g>
</g>
<g>
</g>
<g>
</g>
<g>
</g>
<g>
</g>
<g>
</g>
<g>
</g>
<g>
</g>
</svg>
