<?xml version="1.0" encoding="iso-8859-1"?>
<!-- Generator: Adobe Illustrator 19.0.0, SVG Export Plug-In . SVG Version: 6.00 Build 0)  -->
<svg version="1.1" id="Layer_1" xmlns="http://www.w3.org/2000/svg" xmlns:xlink="http://www.w3.org/1999/xlink" x="0px" y="0px"
	 viewBox="0 0 512.009 512.009" style="enable-background:new 0 0 512.009 512.009;" xml:space="preserve">
<circle style="fill:#F7B239;" cx="256.004" cy="256.004" r="256.004"/>
<g>
	<path style="fill:#E09B2D;" d="M121.499,390.501C29.407,298.407,22.15,153.608,99.723,53.204
		c-8.593,6.638-16.861,13.895-24.743,21.777c-99.974,99.974-99.974,262.065,0,362.038s262.065,99.974,362.038,0
		c7.881-7.881,15.138-16.15,21.777-24.743C358.392,489.85,213.593,482.593,121.499,390.501z"/>
	<path style="fill:#E09B2D;" d="M299.018,352.566H210.45c-5.242,0-9.489-4.248-9.489-9.489c0-5.24,4.247-9.489,9.489-9.489h88.569
		c5.242,0,9.489,4.248,9.489,9.489C308.507,348.318,304.259,352.566,299.018,352.566z"/>
</g>
<g>
	<path style="fill:#4D4D4D;" d="M375.557,298.165H133.912c-5.242,0-9.489,4.248-9.489,9.489c0,5.24,4.247,9.489,9.489,9.489h241.645
		c5.242,0,9.489-4.248,9.489-9.489C385.045,302.413,380.797,298.165,375.557,298.165z"/>
	<path style="fill:#4D4D4D;" d="M177.781,225.753c0-19.358-15.749-35.107-35.107-35.107s-35.107,15.749-35.107,35.107
		s15.749,35.107,35.107,35.107S177.781,245.111,177.781,225.753z"/>
	<path style="fill:#4D4D4D;" d="M369.326,190.646c-19.358,0-35.107,15.749-35.107,35.107s15.749,35.107,35.107,35.107
		s35.107-15.749,35.107-35.107S388.684,190.646,369.326,190.646z"/>
</g>
<g>
</g>
<g>
</g>
<g>
</g>
<g>
</g>
<g>
</g>
<g>
</g>
<g>
</g>
<g>
</g>
<g>
</g>
<g>
</g>
<g>
</g>
<g>
</g>
<g>
</g>
<g>
</g>
<g>
</g>
</svg>
