<svg xmlns="http://www.w3.org/2000/svg" xmlns:xlink="http://www.w3.org/1999/xlink" id="Layer_1" width="800" height="800" version="1.1" viewBox="0 0 512 512" xml:space="preserve"><path style="fill:#38454f" d="M4.339,34.712v277.695h190.915h121.492h190.915V34.712C507.661,15.62,492.041,0,472.949,0H39.051	C19.959,0,4.339,15.62,4.339,34.712"/><g><path style="fill:#546a79" d="M134.508,43.39H39.051c-5.207,0-8.678-3.471-8.678-8.678s3.471-8.678,8.678-8.678h95.458 c5.207,0,8.678,3.471,8.678,8.678S139.715,43.39,134.508,43.39z"/><path style="fill:#546a79" d="M108.475,78.102H39.051c-5.207,0-8.678-3.471-8.678-8.678s3.471-8.678,8.678-8.678h69.424 c5.207,0,8.678,3.471,8.678,8.678S113.681,78.102,108.475,78.102z"/></g><polygon style="fill:#f29c1f" points="256 34.712 316.746 69.424 316.746 138.847 256 173.559 195.254 138.847 195.254 69.424"/><path style="fill:#cc801b" d="M229.966,130.169c-5.207,0-8.678-3.471-8.678-8.678V89.383c0-3.471,1.736-6.942,5.207-7.81	l26.034-11.281c4.339-1.736,9.546,0,11.281,4.339c1.736,4.339,0,9.546-4.339,11.281l-20.827,9.546v26.034	C238.644,126.698,235.173,130.169,229.966,130.169z"/><polygon style="fill:#3b97d3" points="195.254 138.847 256 173.559 256 242.983 195.254 277.695 134.508 242.983 134.508 173.559"/><path style="fill:#2d769e" d="M169.22,234.305c-5.207,0-8.678-3.471-8.678-8.678v-32.108c0-3.471,1.736-6.942,5.207-7.81	l26.034-11.281c4.339-1.736,9.546,0,11.281,4.339c1.736,4.339,0,9.546-4.339,11.281l-20.827,9.546v26.034	C177.898,230.834,174.427,234.305,169.22,234.305z"/><polygon style="fill:#71c285" points="316.746 138.847 377.492 173.559 377.492 242.983 316.746 277.695 256 242.983 256 173.559"/><path style="fill:#599967" d="M290.712,234.305c-5.207,0-8.678-3.471-8.678-8.678v-32.108c0-3.471,1.736-6.942,5.207-7.81	l26.034-11.281c4.339-1.736,9.546,0,11.281,4.339c1.736,4.339,0,9.546-4.339,11.281l-20.827,9.546v26.034	C299.39,230.834,295.919,234.305,290.712,234.305z"/><path style="fill:#ecf0f1" d="M472.949,407.864H39.051c-19.092,0-34.712-15.62-34.712-34.712v-60.746h503.322v60.746	C507.661,392.244,492.041,407.864,472.949,407.864"/><g><path style="fill:#bdc3c7" d="M277.695,360.136c0-12.149-9.546-21.695-21.695-21.695c-12.149,0-21.695,9.546-21.695,21.695 s9.546,21.695,21.695,21.695C268.149,381.831,277.695,372.285,277.695,360.136"/><path style="fill:#bdc3c7" d="M299.39,468.61v-60.746h-86.78v60.746c0,19.092-50.332,34.712-69.424,34.712h225.627 C349.722,503.322,299.39,487.702,299.39,468.61"/></g><path style="fill:#ecf0f1" d="M360.136,512H160.542c-6.942,0-13.017-6.075-13.017-13.017c0-6.942,6.075-13.017,13.017-13.017	h199.593c6.942,0,13.017,6.075,13.017,13.017C373.153,505.925,367.078,512,360.136,512"/></svg>