<svg xmlns="http://www.w3.org/2000/svg" width="800" height="800" class="icon" version="1.1" viewBox="0 0 1024 1024"><path fill="#0AF" d="M862.90625 932.1875H162.96875c-38.71875 0-70.125-31.40625-70.125-70.125V432.5c0-38.71875 31.40625-70.125 70.125-70.125h699.9375c38.71875 0 70.125 31.40625 70.125 70.125v429.5625c0 38.71875-31.40625 70.125-70.125 70.125z"/><path fill="#FC592D" d="M784.0625 227.5625H239.9375c-32.4375 0-58.78125 26.34375-58.78125 58.78125v45.9375h661.6875v-45.9375c0-32.53125-26.34375-58.78125-58.78125-58.78125z"/><path fill="#FFCE00" d="M721.25 91.34375H306.59375c-32.4375 0-58.78125 26.34375-58.78125 58.78125v45.9375H780.125v-45.9375c-0.09375-32.4375-26.34375-58.78125-58.875-58.78125z"/></svg>